<?xml version="1.0" encoding="UTF-8"?>
<svg id="Layer_2" data-name="Layer 2" xmlns="http://www.w3.org/2000/svg" viewBox="0 0 264 258.95">
  <defs>
    <style>
      .cls-1 {
        fill: #000;
        stroke-width: 0px;
      }
    </style>
  </defs>
  <g id="Layer_1-2" data-name="Layer 1">
    <path class="cls-1" d="M264,159.03c-13.12-4.27-26.24-8.55-39.68-12.92-.59,1.95-1.14,3.77-1.68,5.58-.2-8.45-7.2-8.36-12.57-10.19-4.55-1.55-9.14-2.99-14.11-4.61-.53,1.84-1.01,3.48-1.48,5.13-1.19-9.64-9.82-8.12-15.77-10.41-.77-.3-2.33,1.44-3.72,2.37-.43-.52-1.36-1.66-2.84-3.47-1.26,3.33-2.25,5.92-3.34,8.82-.88-.78-1.52-1.07-1.56-1.43-.79-7.28-5.96-6.85-11.2-6.54-2.94.17-5.91.03-9.65.03,0,9.58.47,18.57-.1,27.49-1.2,18.92-3,37.8-4.32,56.72-.1,1.41,1.34,3.46,2.65,4.36,9.58,6.61,19.29,13.05,29.02,19.46,4.88,3.22,6.49,7.7,5.58,14.19-13.7-3.36-27.28-6.69-41.25-10.11-1.87,5.37-3.64,10.42-5.4,15.47-.36,0-.73-.02-1.09-.02-1.73-4.93-3.45-9.87-5.4-15.43-13.75,3.38-27.36,6.71-41.19,10.11-.86-5.91.12-10.47,4.88-13.66,9.95-6.67,19.95-13.27,29.79-20.09,1.28-.89,2.71-3.11,2.47-4.42-4.62-25.4-4.2-51.08-4.6-76.72-.04-2.27,0-4.55,0-7.32-5.95,0-11.25-.14-16.53.13-.97.05-2.08,1.65-2.73,2.76-.86,1.47-1.34,3.17-2.53,6.12-1.05-2.74-1.49-4.11-2.09-5.39-.58-1.22-1.33-2.36-2.01-3.54-1.07.88-2.14,1.75-2.92,2.39-.94-.64-2.52-2.49-3.43-2.21-4.65,1.44-9.25,3.21-13.59,5.41-.97.49-.83,3.17-2.08,4.77-.37-1.5-.75-3-1.24-4.98-7.73,2.51-15.44,4.59-22.74,7.65-2,.84-2.77,4.62-4.18,7.2-.45-1.73-.89-3.44-1.46-5.62C26.46,150.43,13.23,154.73,0,159.03c0-3,0-6,0-9,2.42-2.16,4.54-4.91,7.32-6.39,22.77-12.13,45.65-24.05,68.56-35.93,2.85-1.48,4.11-2.9,3.57-6.47-.85-5.57-1.03-11.29-1.02-16.94.02-11.79,2.67-13.89,14.58-12.15.49.07.98.21,1.47.28,2.98.4,4.77,1.72,4.87,5.08.15,5.56.6,11.1.96,17.2,4.66-2.42,8.85-4.77,13.18-6.79,2.77-1.29,3.77-3.03,3.74-6.16-.16-15.66-.54-31.34.09-46.98.51-12.74,3.26-25.1,12.7-34.78,1.33,0,2.67,0,4,0,1.99,2.61,4.47,4.98,5.88,7.88,4.49,9.21,7.11,18.95,7.04,29.33-.1,14.82-.07,29.63.04,44.45.01,1.65.35,4.14,1.43,4.8,4.87,3.01,10.07,5.5,15.72,8.49,0-4.09-.04-7.23,0-10.38.18-11.83,2.4-13.76,14.3-12.47,1.15.12,2.54.09,3.36.73,1.34,1.04,3.25,2.54,3.28,3.89.18,7.97.25,15.98-.4,23.91-.31,3.75.49,5.59,3.82,7.31,22.18,11.42,44.28,22.98,66.33,34.65,3.28,1.74,6.14,4.28,9.19,6.44v10Z"/>
  </g>
</svg>